<?xml version="1.0" encoding="UTF-8" standalone="no"?><!DOCTYPE svg PUBLIC "-//W3C//DTD SVG 1.1//EN" "http://www.w3.org/Graphics/SVG/1.1/DTD/svg11.dtd"><svg width="100%" height="100%" viewBox="0 0 1200 630" version="1.1" xmlns="http://www.w3.org/2000/svg" xmlns:xlink="http://www.w3.org/1999/xlink" xml:space="preserve" xmlns:serif="http://www.serif.com/" style="fill-rule:evenodd;clip-rule:evenodd;stroke-linejoin:round;stroke-miterlimit:2;"><rect x="0" y="1" width="1200" height="630" style="fill:#3d3d3d;"/><path d="M553.999,653.889c0,-0 -33.972,-157.121 -200.495,-184.883c-166.524,-27.761 -182.167,-100.045 -169.372,-191.304c12.794,-91.259 -91.514,-175.415 -119.766,-185.889c-28.252,-10.475 -75.872,-76.963 -66.118,-112.75c9.753,-35.786 -16.896,265.602 -16.896,265.602l4.828,388.206l567.819,21.018Z" style="fill:url(#_Linear1);"/><path d="M635.485,-12.035c-0,0 33.972,157.121 200.496,184.883c166.523,27.761 182.166,100.045 169.372,191.304c-12.795,91.259 91.514,175.415 119.765,185.889c28.252,10.475 75.872,76.963 66.119,112.75c-9.754,35.786 16.896,-265.602 16.896,-265.602l-4.829,-388.206l-567.819,-21.018Z" style="fill:url(#_Linear2);"/><defs><linearGradient id="_Linear1" x1="0" y1="0" x2="1" y2="0" gradientUnits="userSpaceOnUse" gradientTransform="matrix(572.648,0,0,677.778,-18.6485,315)"><stop offset="0" style="stop-color:#3d3d3d;stop-opacity:1"/><stop offset="0.48" style="stop-color:#3b3b3b;stop-opacity:1"/><stop offset="1" style="stop-color:#363534;stop-opacity:1"/></linearGradient><linearGradient id="_Linear2" x1="0" y1="0" x2="1" y2="0" gradientUnits="userSpaceOnUse" gradientTransform="matrix(-572.648,0,0,-677.778,1208.13,326.854)"><stop offset="0" style="stop-color:#3d3d3d;stop-opacity:1"/><stop offset="0.48" style="stop-color:#3b3b3b;stop-opacity:1"/><stop offset="1" style="stop-color:#363534;stop-opacity:1"/></linearGradient></defs></svg>